# xmcd
#
# Track frame offsets: 
#        150
#        22323
#        49670
#        72095
#        92633
#        118675
#        135770
#
# Disc length: 2154 seconds
#
# Revision: 0
# Processed by: cddbd v1.5.2PL0 Copyright (c) Steve Scherf et al.
# Submitted via: ExactAudioCopy v0.95b4
#
DISCID=57086807
DTITLE=Paul McCartney and Wings   - Wings Over America - Japanese Toshib
DTITLE=a [CD3]
DYEAR=1900
DGENRE=
TTITLE0=Time To Hide
TTITLE1=Silly Love Songs
TTITLE2=Beware My Love
TTITLE3=Letting Go
TTITLE4=Band On The Run
TTITLE5=Hi Hi Hi
TTITLE6=Soily
EXTD=
EXTT0=
EXTT1=
EXTT2=
EXTT3=
EXTT4=
EXTT5=
EXTT6=
PLAYORDER=
